<svg width="81" height="78" viewBox="0 0 81 78" fill="none" xmlns="http://www.w3.org/2000/svg">
<path d="M77.992 8.53036C77.8916 10.2368 77.5905 11.9432 76.7874 13.4488C76.1852 14.6533 74.8803 15.7575 73.7762 16.5605C71.6683 18.0661 68.8577 17.8654 66.4487 17.1627C66.8502 18.1665 66.4487 19.371 65.6457 20.174C64.8427 20.977 63.7385 21.2782 62.6344 21.2782C62.3332 21.2782 61.9317 21.2782 61.6306 21.1778V20.5755H60.2253C60.125 20.4751 60.0246 20.4751 59.9242 20.3748C60.0246 20.4751 60.0246 20.4751 60.125 20.5755H49.5854C49.2843 19.9733 49.1839 19.371 49.1839 18.7687C49.0836 16.6608 50.5892 14.4526 52.5967 14.0511C53.8013 13.7499 54.805 13.9507 56.0095 14.2518C54.1024 12.6458 54.002 9.6345 55.608 7.62697C57.0133 5.92057 59.6231 5.31831 61.6306 6.32207C61.5302 6.6232 61.4299 7.02471 61.3295 7.32584L62.3332 6.72358C62.1325 6.52283 61.9317 6.42245 61.6306 6.32207C62.1325 4.81643 62.7348 3.51153 64.6419 2.00589C65.3445 1.30325 66.2479 1.00212 67.2517 0.801372C68.5566 0.500243 69.8615 0.29949 71.1664 0.500243C73.0735 0.801372 74.7799 1.70476 75.9844 3.21041C77.189 4.71605 78.0923 6.6232 77.992 8.53036Z" fill="#B8884B"/>
<path d="M60.2251 20.5757H61.53V21.0776C61.1285 20.9772 60.6266 20.8768 60.2251 20.5757Z" fill="#B8884B"/>
<path d="M62.5003 5.99982L63.0003 7L61.1992 7.5036C61.2996 7.20247 61.4 6.80097 61.5003 6.49984C61.5003 6 62.2996 5.89945 62.5003 5.99982Z" fill="#B8884B"/>
<path d="M30.3131 58.0161H3.71338V67.4515H30.3131V58.0161Z" fill="#B8884B"/>
<path d="M78.0923 75.7826V47.6772H64.0396L62.2328 20.0737H49.0835L47.1763 47.6772H43.4624L43.362 35.8328L31.1161 46.6735L31.0158 35.7324L18.8702 46.6735L18.7698 35.8328L5.41977 47.6772H2.20772V75.7826H0.200195V77.7902H80.2002V75.7826H78.0923ZM50.8903 22.0813H60.3257L62.0321 47.6772H49.1839L50.8903 22.0813ZM41.3545 40.2494L41.4549 47.6772H33.0233L41.3545 40.2494ZM29.0082 40.2494L29.1086 47.6772H20.677L29.0082 40.2494ZM16.7623 40.2494L16.8627 47.6772H8.43106L16.7623 40.2494ZM76.0848 75.7826H63.8388V57.5141H61.8313V75.7826H53.6004V57.5141H51.5929V75.7826H43.362V57.5141H41.3545V75.7826H4.21525V49.6848H76.1851V75.7826H76.0848Z" fill="#01305E"/>
</svg>
