<svg width="64" height="80" viewBox="0 0 64 80" fill="none" xmlns="http://www.w3.org/2000/svg">
<path d="M54.0186 32.661C54.0186 42.6001 47.4608 51.0023 38.4439 53.8713C36.2921 54.5885 34.0379 54.8959 31.7837 54.8959C30.759 54.8959 29.8369 54.7935 28.8122 54.691C23.2791 53.9737 18.2583 51.1047 14.877 47.0061C15.6967 40.7557 20.9224 36.0424 27.1728 36.0424C29.5295 36.0424 31.6812 36.6571 33.5256 37.8867C36.2921 34.0955 40.1858 31.329 44.8992 30.2018C47.9732 29.4846 51.0471 29.5871 53.9161 30.3043C54.0186 31.124 54.0186 31.8413 54.0186 32.661Z" fill="#B8884B"/>
<path d="M39.9809 62.4785C53.9161 58.7897 63.5478 46.1865 63.5478 31.739C63.5478 23.0294 59.8591 14.5248 53.5062 8.58187C47.0509 2.53643 38.5463 -0.537521 29.7344 0.077269C13.6473 1.10192 0.634285 14.5248 0.0194946 30.6119C-0.492831 45.4693 9.13888 58.5848 23.484 62.376C23.9963 62.4785 24.5086 62.8883 24.816 63.4007C25.4308 64.6302 26.4555 66.6796 27.4801 68.7289C22.3569 69.4461 18.0533 71.2905 18.0533 74.262C18.0533 78.0532 25.1234 80 31.7837 80C38.4439 80 45.514 77.9507 45.514 74.262C45.514 71.2905 41.108 69.4461 35.9847 68.7289C37.0094 66.6796 37.9316 64.6302 38.5463 63.5031C38.8537 62.9908 39.3661 62.6834 39.9809 62.4785ZM43.4647 74.262C43.4647 75.7989 38.9562 77.9507 31.7837 77.9507C24.6111 77.9507 20.1026 75.6965 20.1026 74.262C20.1026 73.0324 23.2791 71.2905 28.4023 70.6757C29.5294 72.9299 30.3491 74.7743 30.3491 75.0817H33.2182C33.2182 74.6718 34.0379 72.8275 35.0625 70.6757C40.2882 71.2905 43.4647 73.0324 43.4647 74.262ZM36.702 62.6834C35.8823 64.2204 34.8576 66.4746 33.833 68.6264C33.5256 69.3436 33.2182 69.9584 32.9108 70.6757C32.3984 71.5979 32.091 72.5201 31.7837 73.2373C31.4763 72.5201 31.0664 71.7003 30.6565 70.6757C30.3491 70.0609 30.0417 69.3436 29.6319 68.6264C28.6072 66.4746 27.3777 64.2204 26.5579 62.5809C26.0456 61.5563 25.1234 60.7366 23.9963 60.4292C10.5734 56.8429 1.55647 44.5471 2.0688 30.7143C2.58112 15.652 14.7745 3.04876 29.8368 2.12657C30.4516 2.12657 31.1689 2.0241 31.7837 2.0241C39.3661 2.0241 46.5386 4.89313 52.0717 10.1188C58.1172 15.7544 61.4985 23.5418 61.4985 31.739C61.4985 45.1619 52.3791 57.0478 39.4685 60.4292C38.2389 60.839 37.2143 61.5563 36.702 62.6834Z" fill="#01305E"/>
<path d="M31.7836 54.7934C19.078 54.7934 8.729 44.4444 8.729 31.7387C8.729 19.033 19.078 8.68408 31.7836 8.68408C44.4893 8.68408 54.8383 19.033 54.8383 31.7387C54.8383 44.4444 44.4893 54.7934 31.7836 54.7934ZM31.7836 10.7334C20.2051 10.7334 10.7783 20.1602 10.7783 31.7387C10.7783 43.3173 20.2051 52.7441 31.7836 52.7441C43.3622 52.7441 52.789 43.3173 52.789 31.7387C52.789 20.1602 43.3622 10.7334 31.7836 10.7334Z" fill="#01305E"/>
<path d="M25.1234 28.8698C22.0494 28.8698 19.4878 26.3082 19.4878 23.2342C19.4878 20.1603 22.0494 17.5986 25.1234 17.5986C28.1973 17.5986 30.7589 20.1603 30.7589 23.2342C30.7589 26.3082 28.1973 28.8698 25.1234 28.8698ZM25.1234 19.6479C23.1765 19.6479 21.5371 21.2874 21.5371 23.2342C21.5371 25.181 23.1765 26.8205 25.1234 26.8205C27.0702 26.8205 28.7096 25.181 28.7096 23.2342C28.7096 21.2874 27.0702 19.6479 25.1234 19.6479Z" fill="#01305E"/>
</svg>
