<svg width="81" height="68" viewBox="0 0 81 68" fill="none" xmlns="http://www.w3.org/2000/svg">
<path d="M63.4064 2.43048L60.9637 12.5068L58.9281 11.9979L60.5566 5.58569L43.8644 16.4763L25.0349 4.26254L6.8161 16.3745L5.59473 14.6442L25.0349 1.81979L43.8644 14.0335L59.437 3.85541L52.923 2.73582L53.2283 0.700195L63.4064 2.43048Z" fill="#01305E"/>
<path d="M67.9865 20.0386V41.6162L70.0221 55.5602L65.4419 57.7994L61.2689 55.8655H59.7422V20.0386H67.9865ZM29.2078 20.0386V55.7637H20.9636V20.0386H29.2078ZM48.1391 32.4559V55.662H39.8949V32.4559H48.1391ZM10.3783 32.9648V55.7637H2.23582V32.9648H10.3783ZM70.0221 18.0029H57.7066V55.7637H50.2765V30.4202H37.961V55.662H31.2435V18.0029H18.9279V55.7637H12.4139V30.9291H0.200195V57.7994H70.0221V18.0029Z" fill="#01305E"/>
<path d="M65.3405 48.8427C67.4779 48.8427 69.3099 50.573 69.3099 52.8122C69.3099 54.9496 67.5797 56.7816 65.3405 56.7816C63.2031 56.7816 61.371 55.0513 61.371 52.8122C61.371 50.6748 63.1013 48.8427 65.3405 48.8427ZM65.3405 40.7002C58.6229 40.7002 53.2285 46.0946 53.2285 52.8122C53.2285 59.5297 58.6229 64.9241 65.3405 64.9241C72.058 64.9241 77.4524 59.5297 77.4524 52.8122C77.4524 46.0946 71.9562 40.7002 65.3405 40.7002Z" fill="#B8884B"/>
<path d="M68.9025 37.647H61.676L60.6582 44.6699H69.9203L68.9025 37.647Z" fill="#B8884B"/>
<path d="M68.9026 37.647H61.6761L61.1672 41.4129C59.8441 41.9218 58.6227 42.6342 57.5031 43.5503L53.9408 42.1253L50.3784 48.334L53.4319 50.675C53.3301 51.2856 53.2283 51.9981 53.2283 52.7106C53.2283 53.5248 53.3301 54.2373 53.4319 54.9498L50.4802 57.3925L54.1443 63.6012L57.7067 62.1762C58.7245 62.9905 59.9458 63.7029 61.1672 64.2119L61.6761 67.9778H68.9026L69.4115 64.2119C70.7346 63.7029 71.956 62.9905 73.0756 62.0745L76.638 63.4994L80.2003 57.2907L77.1469 54.9498C77.2486 54.3391 77.3504 53.6266 77.3504 52.9141C77.3504 52.0999 77.2486 51.3874 77.1469 50.675L80.0985 48.2322L76.4344 42.0236L72.8721 43.4485C71.8542 42.6343 70.6329 41.9218 69.4115 41.4129L68.9026 37.647ZM65.3402 56.7818C63.2028 56.7818 61.3708 54.9498 61.3708 52.8124C61.3708 50.675 63.2028 48.8429 65.3402 48.8429C67.4776 48.8429 69.3097 50.675 69.3097 52.8124C69.3097 54.9498 67.4776 56.7818 65.3402 56.7818Z" fill="#B8884B"/>
</svg>
