<svg width="81" height="81" viewBox="0 0 81 81" fill="none" xmlns="http://www.w3.org/2000/svg">
<path d="M40.5 0.5C18.4241 0.5 0.5 18.4241 0.5 40.5C0.5 62.5759 18.4241 80.5 40.5 80.5C62.5759 80.5 80.5 62.5759 80.5 40.5C80.5 18.4241 62.5759 0.5 40.5 0.5ZM40.5 78.4747C19.538 78.4747 2.52532 61.462 2.52532 40.5C2.52532 19.538 19.538 2.52532 40.5 2.52532C61.462 2.52532 78.4747 19.538 78.4747 40.5C78.4747 61.462 61.462 78.4747 40.5 78.4747Z" fill="#01305E"/>
<path d="M54.7782 26.2212L34.1199 34.1199L26.2212 54.7782L46.8794 46.8794L54.7782 26.2212Z" fill="#B8884B"/>
<path d="M40.4999 7.28467C22.1707 7.28467 7.28467 22.1707 7.28467 40.4999C7.28467 58.829 22.1707 73.7151 40.4999 73.7151C58.829 73.7151 73.7151 58.829 73.7151 40.4999C73.7151 22.1707 58.829 7.28467 40.4999 7.28467ZM63.1834 61.7657L59.8416 58.4239L58.4239 59.8416L61.7657 63.1834C56.3986 68.2467 49.31 71.3859 41.4113 71.5885V64.0948H39.3859V71.4872C31.5885 71.1834 24.4999 68.0442 19.234 63.0821L22.5758 59.7404L21.1581 58.3226L17.8163 61.7657C12.753 56.3986 9.61378 49.31 9.41125 41.5125H16.8037V39.4872H9.41125C9.61378 31.6897 12.753 24.6011 17.8163 19.234L21.1581 22.5758L22.5758 21.1581L19.234 17.8163C24.6011 12.753 31.6897 9.61378 39.4872 9.41125V16.8037H41.5125V9.41125C49.4113 9.61378 56.4999 12.753 61.8669 17.8163L58.5252 21.1581L59.9429 22.5758L63.2847 19.234C68.348 24.6011 71.4872 31.6897 71.6897 39.4872H64.1961V41.5125H71.6897C71.3859 49.31 68.2467 56.4999 63.1834 61.7657Z" fill="#01305E"/>
</svg>
