<svg width="20" height="15" viewBox="0 0 20 15" fill="none" xmlns="http://www.w3.org/2000/svg">
<path opacity="0.35" d="M17.8641 0H2.13592C0.970874 0 0 0.961538 0 2.11538V12.8846C0 14.0385 0.970874 15 2.13592 15H17.8641C19.0291 15 20 14.0385 20 12.8846V2.11538C20 0.961538 19.0291 0 17.8641 0ZM18.2524 12.8846C18.2524 13.0769 18.0583 13.1731 17.9612 13.1731H2.13592C1.94175 13.1731 1.84466 12.9808 1.84466 12.8846V3.46154L9.51456 10C9.80583 10.2885 10.3883 10.2885 10.6796 10L18.2524 3.46154V12.8846ZM2.62136 1.73077H17.3786L10 8.07692L2.62136 1.73077Z" fill="#252D35"/>
</svg>
