<svg width="34" height="35" viewBox="0 0 34 35" fill="none" xmlns="http://www.w3.org/2000/svg">
<g opacity="0.5">
<path d="M11.0804 34.1447L8.04464 28.5287L1.97321 26.5555L3.33929 20.3322L0 14.868L5.00893 10.9215L5.91964 4.54653L12.2946 4.8501L17 0.600098L21.7054 4.8501L28.0804 4.54653L28.9911 10.9215L34 14.868L30.6607 20.1805L32.0268 26.4037L25.9554 28.3769L22.9196 33.993L17 31.7162L11.0804 34.1447ZM17 28.3769L21.5536 30.1983L23.8304 25.9483L28.3839 24.4305L27.3214 19.7251L29.9018 15.6269L26.1071 12.5912L25.5 7.73403L20.6429 7.88581L17 4.8501L13.3571 8.0376L8.5 7.88581L7.89286 12.5912L4.09821 15.6269L6.67857 19.7251L5.61607 24.4305L10.1696 25.9483L12.4464 30.1983L17 28.3769Z" fill="#252D35"/>
<path d="M17.0002 14.2542L13.351 17.9034L17.0002 21.5525L20.6493 17.9034L17.0002 14.2542Z" fill="#252D35"/>
</g>
</svg>
