<svg width="20" height="20" viewBox="0 0 20 20" fill="none" xmlns="http://www.w3.org/2000/svg">
<path d="M14.4812 20C13.5761 20 12.4699 19.7999 11.3637 19.2996C9.35243 18.4991 7.03946 16.8981 5.02819 14.8969C3.01691 12.8957 1.50846 10.6944 0.603383 8.59309C0.201128 7.59248 0 6.49181 0 5.59126C0 4.39054 0.402255 3.28987 1.1062 2.58945L2.71522 0.988474C4.02255 -0.312314 6.13439 -0.312314 7.54228 0.888414L9.85525 3.18981C10.7603 4.09036 11.062 5.29108 10.7603 6.49181C10.5592 7.49242 9.85525 8.2929 8.95018 8.69315C9.25187 9.09339 9.55356 9.59369 10.0564 9.99393C10.4586 10.3942 10.9615 10.6944 11.2631 10.8945C11.6654 9.99393 12.4699 9.39357 13.4755 9.19345C14.6823 8.89327 15.9896 9.19345 16.7942 10.094L19.0066 12.2953C20.3139 13.5961 20.3139 15.7975 19.1071 17.1983V17.2984L17.5987 18.7993C16.7942 19.5998 15.7885 20 14.4812 20ZM5.12875 1.98908C4.7265 1.98908 4.42481 2.08914 4.12312 2.38932L2.61466 3.89023C2.2124 4.29048 2.01128 4.89084 2.01128 5.59126C2.01128 6.29169 2.2124 6.99211 2.51409 7.89266C3.21804 9.69375 4.62593 11.695 6.43608 13.4961C8.24623 15.2971 10.2575 16.698 12.0677 17.4985C12.9727 17.8987 13.7772 18.0988 14.3806 17.9988C15.0846 17.9988 15.688 17.7987 15.9896 17.3984L17.4981 15.8975C18.0009 15.2971 18.1015 14.3966 17.4981 13.6962L15.2857 11.4948C14.8834 11.0946 14.3806 10.9945 13.7772 11.0946C13.2744 11.1947 12.8722 11.5949 12.7716 11.9951C12.4699 12.6956 11.766 13.0958 11.062 12.9958C10.2575 12.7956 9.35243 12.1953 8.44736 11.3948C7.74341 10.5943 7.14003 9.69375 7.03946 8.89327C6.9389 8.59308 6.9389 8.19284 7.14003 7.89266C7.34116 7.59248 7.64285 7.2923 7.94454 7.19224C8.44736 6.99211 8.84961 6.69193 8.95018 6.19163C9.05074 5.59126 8.95018 4.9909 8.54792 4.69072L6.23495 2.38932C5.93326 2.1892 5.53101 1.98908 5.12875 1.98908Z" fill="#252D35"/>
</svg>
