<svg width="20" height="20" viewBox="0 0 20 20" fill="none" xmlns="http://www.w3.org/2000/svg">
<path d="M16.7882 12.8117C15.7425 11.7661 14.498 10.992 13.1401 10.5235C14.5944 9.52182 15.5499 7.84545 15.5499 5.9499C15.5499 2.88964 13.0602 0.399902 9.9999 0.399902C6.93964 0.399902 4.4499 2.88964 4.4499 5.9499C4.4499 7.84545 5.40536 9.52182 6.85973 10.5235C5.50185 10.992 4.2573 11.7661 3.21169 12.8117C1.39849 14.6249 0.399902 17.0357 0.399902 19.5999H1.8999C1.8999 15.1335 5.53354 11.4999 9.9999 11.4999C14.4663 11.4999 18.0999 15.1335 18.0999 19.5999H19.5999C19.5999 17.0357 18.6013 14.6249 16.7882 12.8117ZM9.9999 9.9999C7.76674 9.9999 5.9499 8.1831 5.9499 5.9499C5.9499 3.7167 7.76674 1.8999 9.9999 1.8999C12.2331 1.8999 14.0499 3.7167 14.0499 5.9499C14.0499 8.1831 12.2331 9.9999 9.9999 9.9999Z" fill="#252D35"/>
</svg>
