<svg width="280" height="58" viewBox="0 0 280 58" fill="none" xmlns="http://www.w3.org/2000/svg">
<path d="M61.8112 51.6382C61.8112 50.2646 60.8603 49.3665 59.5924 49.3665C58.3773 49.3665 57.4263 50.2646 57.4263 51.6382C57.4263 53.0118 58.3773 53.9099 59.5924 53.9099C60.8603 53.9099 61.8112 53.0118 61.8112 51.6382ZM63.0263 51.6382C63.0263 53.5929 61.6527 54.9137 59.7509 54.9137C58.8527 54.9137 58.0075 54.5439 57.4792 53.8571V57.1854H56.3169V48.4156H57.4263V49.4722C57.9546 48.7326 58.7999 48.4156 59.7509 48.4156C61.6527 48.3628 63.0263 49.6835 63.0263 51.6382Z" fill="#252D35"/>
<path d="M68.5735 52.9062V52.0081H66.7773C65.615 52.0081 65.298 52.4835 65.298 53.0118C65.298 53.6458 65.8263 54.0685 66.7244 54.0685C67.5697 54.0685 68.3093 53.6458 68.5735 52.9062ZM69.7886 51.0043V54.9137H68.6791V54.0685C68.3093 54.6496 67.5697 54.9666 66.5659 54.9666C65.0867 54.9666 64.1357 54.1741 64.1357 53.0647C64.1357 52.0081 64.8225 51.1628 66.7773 51.1628H68.6263V50.9515C68.6263 49.9477 68.0452 49.4194 66.8829 49.4194C66.0905 49.4194 65.298 49.6835 64.8225 50.1062L64.3471 49.2081C65.0339 48.6798 65.9848 48.3628 67.0414 48.3628C68.7848 48.3628 69.7886 49.2081 69.7886 51.0043Z" fill="#252D35"/>
<path d="M76.6567 53.0118C76.6567 54.1741 75.336 54.9666 73.6454 54.9666C72.6945 54.9666 71.7435 54.7024 71.0039 54.2269L71.3737 53.3288C72.0077 53.7515 72.853 53.9628 73.6454 53.9628C74.7548 53.9628 75.4945 53.5402 75.4945 52.9062C75.4945 52.3251 74.9133 51.9552 73.9624 51.9552H72.7473V51.11H73.8567C74.702 51.11 75.2831 50.793 75.2831 50.2647C75.2831 49.6835 74.5964 49.3666 73.6454 49.3666C72.9586 49.3666 72.3247 49.5251 71.585 49.842L71.2681 48.9439C72.1133 48.5213 72.9058 48.3628 73.7511 48.3628C75.336 48.3628 76.4982 49.0496 76.4982 50.1062C76.4982 50.7401 76.0228 51.2685 75.336 51.5326C76.1813 51.7439 76.6567 52.2722 76.6567 53.0118Z" fill="#252D35"/>
<path d="M79.2455 53.8569H82.8908V49.472H80.0908L80.038 50.6871C79.9852 52.0079 79.8267 53.3286 79.2455 53.8569ZM85.0569 53.8569V56.3928H83.9474V54.9135H78.5059V56.3928H77.3965V53.8569H77.7135C78.6644 53.8041 78.8229 52.2192 78.8757 50.6343L78.9814 48.4683H84.0531V53.8569H85.0569Z" fill="#252D35"/>
<path d="M91.1323 53.0122C91.1323 52.3254 90.7096 52.0085 89.7587 52.0085H87.804V53.9632H89.7058C90.6568 53.9632 91.1323 53.699 91.1323 53.0122ZM87.7511 51.216H89.4945C90.3926 51.216 90.8681 50.899 90.8681 50.2651C90.8681 49.6311 90.3926 49.367 89.4945 49.367H87.7511V51.216ZM92.2945 53.1179C92.2945 54.2273 91.4492 54.9141 89.7058 54.9141H86.5889V48.416H89.6002C91.1323 48.416 92.0304 48.9971 92.0304 50.0538C92.0304 50.7405 91.6606 51.2688 90.9738 51.4802C91.9247 51.7443 92.2945 52.2726 92.2945 53.1179Z" fill="#252D35"/>
<path d="M94.1436 48.416H95.3587V53.1179L99.3209 48.416H100.378V54.8613H99.2153V50.1594L95.253 54.8613H94.1436V48.416Z" fill="#252D35"/>
<path d="M108.619 52.167H107.351V54.8613H106.136V52.167H104.868L103.125 54.8613H101.698L103.917 51.533L101.857 48.416H103.125L104.868 51.1632H106.136V48.416H107.351V51.1632H108.619L110.362 48.416H111.63L109.57 51.533L111.789 54.8613H110.415L108.619 52.167Z" fill="#252D35"/>
<path d="M113.109 48.416H114.272V51.1632H117.97V48.416H119.185V54.8613H117.97V52.167H114.272V54.8613H113.109V48.416Z" fill="#252D35"/>
<path d="M127.902 48.416H129.064V54.8613H127.902V48.416ZM125.736 52.6953C125.736 51.85 125.207 51.4802 124.098 51.4802H122.619V54.016H124.098C125.155 54.016 125.736 53.5934 125.736 52.6953ZM126.951 52.6953C126.951 54.0688 125.947 54.8613 124.204 54.8613H121.457V48.416H122.619V50.5821H124.362C126.053 50.6349 126.951 51.3745 126.951 52.6953Z" fill="#252D35"/>
<path d="M131.97 51.216H136.143C136.038 50.1594 135.193 49.367 134.03 49.367C132.921 49.367 132.076 50.1066 131.97 51.216ZM137.253 52.0613H131.97C132.128 53.1707 133.026 53.9632 134.347 53.9632C135.087 53.9632 135.774 53.699 136.249 53.1707L136.883 53.9104C136.302 54.5971 135.404 54.967 134.294 54.967C132.181 54.967 130.808 53.5934 130.808 51.6915C130.808 49.7896 132.181 48.416 134.083 48.416C135.985 48.416 137.306 49.7368 137.306 51.7443C137.253 51.7971 137.253 51.9556 137.253 52.0613Z" fill="#252D35"/>
<path d="M141.796 51.6383C141.796 49.7364 143.223 48.3628 145.23 48.3628C146.393 48.3628 147.344 48.8383 147.872 49.7364L146.974 50.3175C146.551 49.6835 145.917 49.4194 145.23 49.4194C143.962 49.4194 143.011 50.3175 143.011 51.6911C143.011 53.0647 143.962 53.9628 145.23 53.9628C145.917 53.9628 146.604 53.6458 146.974 53.0647L147.872 53.6458C147.344 54.5439 146.393 55.0194 145.23 55.0194C143.223 54.9666 141.796 53.593 141.796 51.6383Z" fill="#252D35"/>
<path d="M154.159 49.4726H151.781V54.8613H150.619V49.4726H148.242V48.416H154.159V49.4726Z" fill="#252D35"/>
<path d="M155.691 51.216H159.864C159.758 50.1594 158.913 49.367 157.751 49.367C156.642 49.367 155.796 50.1066 155.691 51.216ZM160.974 52.0613H155.691C155.849 53.1707 156.747 53.9632 158.068 53.9632C158.808 53.9632 159.494 53.699 159.97 53.1707L160.604 53.9104C160.023 54.5971 159.125 54.967 158.015 54.967C155.902 54.967 154.528 53.5934 154.528 51.6915C154.528 49.7896 155.902 48.416 157.804 48.416C159.706 48.416 161.026 49.7368 161.026 51.7443C160.974 51.7971 160.974 51.9556 160.974 52.0613Z" fill="#252D35"/>
<path d="M162.823 48.416H163.985V51.1632H167.683V48.416H168.845V54.8613H167.683V52.167H163.985V54.8613H162.823V48.416Z" fill="#252D35"/>
<path d="M177.615 48.416H178.778V54.8613H177.615V48.416ZM175.449 52.6953C175.449 51.85 174.921 51.4802 173.812 51.4802H172.332V54.016H173.812C174.868 54.016 175.449 53.5934 175.449 52.6953ZM176.612 52.6953C176.612 54.0688 175.608 54.8613 173.864 54.8613H171.117V48.416H172.279V50.5821H174.023C175.766 50.6349 176.612 51.3745 176.612 52.6953Z" fill="#252D35"/>
<path d="M184.377 48.416H185.54V53.1179L189.555 48.416H190.611V54.8613H189.449V50.1594L185.487 54.8613H184.377V48.416Z" fill="#252D35"/>
<path d="M202.234 48.416V54.8613H201.072V49.4726H197.374V54.8613H196.211V48.416H202.234Z" fill="#252D35"/>
<path d="M205.087 51.216H209.261C209.155 50.1594 208.31 49.367 207.147 49.367C206.038 49.367 205.246 50.1066 205.087 51.216ZM210.37 52.0613H205.087C205.246 53.1707 206.144 53.9632 207.464 53.9632C208.204 53.9632 208.838 53.699 209.366 53.1707L210 53.9104C209.419 54.5971 208.521 54.967 207.412 54.967C205.298 54.967 203.925 53.5934 203.925 51.6915C203.925 49.7896 205.298 48.416 207.2 48.416C209.102 48.416 210.423 49.7368 210.423 51.7443C210.423 51.7971 210.37 51.9556 210.37 52.0613Z" fill="#252D35"/>
<path d="M217.766 51.6382C217.766 50.2646 216.815 49.3665 215.547 49.3665C214.332 49.3665 213.381 50.2646 213.381 51.6382C213.381 53.0118 214.332 53.9099 215.547 53.9099C216.815 53.9099 217.766 53.0118 217.766 51.6382ZM218.981 51.6382C218.981 53.5929 217.607 54.9137 215.705 54.9137C214.807 54.9137 213.962 54.5439 213.434 53.8571V57.1854H212.271V48.4156H213.381V49.4722C213.909 48.7326 214.755 48.4156 215.705 48.4156C217.607 48.3628 218.981 49.6835 218.981 51.6382Z" fill="#252D35"/>
<path d="M221.253 51.216H225.427C225.321 50.1594 224.476 49.367 223.313 49.367C222.204 49.367 221.359 50.1066 221.253 51.216ZM226.536 52.0613H221.253C221.412 53.1707 222.31 53.9632 223.63 53.9632C224.37 53.9632 225.004 53.699 225.532 53.1707L226.166 53.9104C225.585 54.5971 224.687 54.967 223.578 54.967C221.464 54.967 220.091 53.5934 220.091 51.6915C220.091 49.7896 221.464 48.416 223.366 48.416C225.268 48.416 226.589 49.7368 226.589 51.7443C226.536 51.7971 226.536 51.9556 226.536 52.0613Z" fill="#252D35"/>
<path d="M233.192 49.4726H229.547V54.8613H228.385V48.416H233.192V49.4726Z" fill="#252D35"/>
<path d="M239.056 51.6383C239.056 50.2647 238.106 49.3666 236.89 49.3666C235.622 49.3666 234.672 50.2647 234.672 51.6383C234.672 53.0118 235.622 53.91 236.89 53.91C238.158 53.91 239.056 53.0118 239.056 51.6383ZM233.509 51.6383C233.509 49.7364 234.936 48.3628 236.89 48.3628C238.845 48.3628 240.272 49.7364 240.272 51.6383C240.272 53.5401 238.845 54.9137 236.89 54.9137C234.936 54.9666 233.509 53.593 233.509 51.6383Z" fill="#252D35"/>
<path d="M247.509 51.6382C247.509 50.2646 246.559 49.3665 245.291 49.3665C244.076 49.3665 243.125 50.2646 243.125 51.6382C243.125 53.0118 244.076 53.9099 245.291 53.9099C246.559 53.9099 247.509 53.0118 247.509 51.6382ZM248.725 51.6382C248.725 53.5929 247.351 54.9137 245.449 54.9137C244.551 54.9137 243.706 54.5439 243.177 53.8571V57.1854H242.015V48.4156H243.125V49.4722C243.653 48.7326 244.498 48.4156 245.449 48.4156C247.351 48.3628 248.725 49.6835 248.725 51.6382Z" fill="#252D35"/>
<path d="M255.381 51.6383C255.381 50.2647 254.43 49.3666 253.215 49.3666C251.947 49.3666 250.996 50.2647 250.996 51.6383C250.996 53.0118 251.947 53.91 253.215 53.91C254.483 53.91 255.381 53.0118 255.381 51.6383ZM249.834 51.6383C249.834 49.7364 251.26 48.3628 253.215 48.3628C255.17 48.3628 256.596 49.7364 256.596 51.6383C256.596 53.5401 255.17 54.9137 253.215 54.9137C251.26 54.9666 249.834 53.593 249.834 51.6383Z" fill="#252D35"/>
<path d="M259.027 53.8569H262.672V49.472H259.872L259.819 50.6871C259.766 52.0079 259.608 53.3286 259.027 53.8569ZM264.838 53.8569V56.3928H263.781V54.9135H258.34V56.3928H257.23V53.8569H257.6C258.551 53.8041 258.71 52.2192 258.763 50.6343L258.868 48.4683H263.94V53.8569H264.838Z" fill="#252D35"/>
<path d="M268.906 52.167H267.585V54.8613H266.423V48.416H267.585V51.1632H268.959L271.072 48.416H272.34L269.857 51.533L272.498 54.8613H271.125L268.906 52.167Z" fill="#252D35"/>
<path d="M273.766 48.416H274.928V53.1179L278.891 48.416H280V54.8613H278.785V50.1594L274.823 54.8613H273.766V48.416Z" fill="#252D35"/>
<path d="M56.4224 1.7666H74.6488V5.25339H60.0676V16.5591H74.6488V20.0458H60.0676V37.6911H56.4224V1.7666Z" fill="#252D35"/>
<path d="M99.7432 4.35505C97.0488 4.35505 94.513 5.04185 92.0828 6.41543C89.6526 7.78901 87.8036 9.6909 86.43 12.0154C85.0564 14.34 84.4224 16.9815 84.4224 19.8871C84.4224 24.1664 85.9017 27.7588 88.913 30.7173C91.9243 33.6758 95.5168 35.1551 99.7432 35.1551C102.543 35.1551 105.185 34.4683 107.562 33.1475C109.939 31.7739 111.841 29.9249 113.162 27.6003C114.483 25.2758 115.17 22.6343 115.17 19.7815C115.17 16.9286 114.483 14.34 113.162 12.0154C111.841 9.6909 109.939 7.84185 107.456 6.46826C105.026 5.04185 102.438 4.35505 99.7432 4.35505ZM99.5319 0.81543C105.026 0.81543 109.675 2.61166 113.373 6.25694C117.071 9.90222 118.921 14.34 118.921 19.6758C118.921 24.9588 117.071 29.3966 113.373 33.0947C109.675 36.74 105.132 38.589 99.8488 38.589C94.4602 38.589 89.9168 36.74 86.1658 33.0947C82.4677 29.4494 80.6187 25.0117 80.6187 19.8343C80.6187 16.4003 81.4639 13.1777 83.1545 10.2192C84.8451 7.26071 87.1696 4.93618 90.0753 3.29845C92.9809 1.66071 96.1507 0.81543 99.5319 0.81543Z" fill="#252D35"/>
<path d="M127.532 1.7666H131.177V34.2572H145.124V37.6911H127.532V1.7666Z" fill="#252D35"/>
<path d="M194.256 1.29102H190.505V38.4835H194.256V1.29102Z" fill="#252D35"/>
<path d="M277.675 7.78941L274.875 10.4309C272.868 8.4762 270.649 6.94412 268.219 5.94035C265.788 4.93658 263.464 4.40827 261.139 4.40827C258.287 4.40827 255.592 5.09507 253.004 6.46865C250.415 7.84224 248.407 9.74412 246.981 12.1215C245.555 14.4988 244.868 16.9819 244.868 19.6234C244.868 22.3177 245.607 24.9064 247.087 27.3366C248.566 29.7668 250.573 31.6687 253.162 33.0951C255.751 34.4687 258.604 35.2083 261.668 35.2083C265.419 35.2083 268.588 34.1517 271.177 32.0913C273.766 30.0309 275.298 27.2837 275.773 23.9554H264.151V20.4687H279.841C279.789 26.0158 278.151 30.4536 274.822 33.729C271.494 37.0045 267.109 38.6422 261.562 38.6422C254.853 38.6422 249.517 36.3705 245.607 31.8271C242.596 28.3403 241.064 24.3253 241.064 19.729C241.064 16.3479 241.909 13.1781 243.653 10.2196C245.396 7.26111 247.773 4.98941 250.785 3.35167C253.796 1.71394 257.23 0.868652 261.034 0.868652C264.098 0.868652 267.004 1.39695 269.751 2.50639C272.392 3.61582 275.087 5.35922 277.675 7.78941Z" fill="#252D35"/>
<path d="M204.136 5.67612V1.44971H204.981L233.668 34.7856V38.5893H232.823L204.136 5.67612Z" fill="#252D35"/>
<path d="M233.668 5.78178V29.8195L229.917 25.4874V1.44971L233.668 5.78178Z" fill="#252D35"/>
<path d="M204.136 34.0458V10.6948L208.045 15.1854V38.5892L204.136 34.0458Z" fill="#252D35"/>
<path d="M179.834 9.37424C177.826 6.36292 175.079 4.24972 171.539 3.03462C169.109 2.18934 165.147 1.71387 159.706 1.71387H152.573L155.69 5.25349H158.279C163.509 5.25349 167.26 5.57047 169.532 6.25726C172.543 7.15538 174.921 8.84594 176.611 11.329C178.302 13.812 179.147 16.7705 179.147 20.2044C179.147 23.5327 178.355 26.3327 176.822 28.6044C175.238 30.8761 173.124 32.461 170.377 33.3592C168.422 33.9931 164.936 34.3101 159.917 34.3101H155.69V10.5893L152.204 6.62707V37.7441H163.773C168.317 37.7441 171.856 37.1101 174.339 35.7893C176.875 34.4686 178.883 32.461 180.468 29.7139C182.053 26.9667 182.845 23.7969 182.845 20.2044C182.792 16.0308 181.841 12.4384 179.834 9.37424Z" fill="#252D35"/>
<path d="M1.16237 52.9578C1.37369 53.1691 1.63784 53.2748 1.95482 53.2748C2.2718 53.2748 2.53595 53.1691 2.74728 52.9578C2.9586 52.7465 3.06426 52.4823 3.06426 52.1125C3.06426 51.7956 2.9586 51.4786 2.74728 51.2673C2.53595 51.0559 2.2718 50.9503 1.95482 50.9503C1.63784 50.9503 1.37369 51.0559 1.16237 51.2673C0.951049 51.4786 0.845388 51.7427 0.845388 52.1125C0.845388 52.4823 0.951049 52.7465 1.16237 52.9578ZM3.27558 53.4333C2.90577 53.8031 2.48312 53.9616 2.00765 53.9616C1.53218 53.9616 1.05671 53.8031 0.739728 53.4333C0.369916 53.0635 0.211426 52.6408 0.211426 52.1654C0.211426 51.6371 0.369916 51.2144 0.739728 50.8974C1.10954 50.5276 1.53218 50.3691 2.00765 50.3691C2.48312 50.3691 2.9586 50.5276 3.27558 50.8974C3.64539 51.2673 3.80388 51.6899 3.80388 52.1654C3.80388 52.6937 3.59256 53.1163 3.27558 53.4333Z" fill="#252D35"/>
<path d="M6.07562 53.9623C5.54732 53.9623 5.12468 53.8038 4.75486 53.434C4.43788 53.0642 4.22656 52.6415 4.22656 52.1132C4.22656 51.5849 4.38505 51.1623 4.75486 50.7925C5.07185 50.4227 5.54732 50.2642 6.07562 50.2642C6.3926 50.2642 6.70958 50.317 6.97373 50.4755C7.23788 50.634 7.4492 50.8453 7.60769 51.0566L7.02656 51.4264C6.9209 51.2679 6.81524 51.1623 6.65675 51.0566C6.49826 50.951 6.33977 50.8981 6.12845 50.8981C5.81147 50.8981 5.49449 51.0038 5.28317 51.2151C5.07185 51.4264 4.96619 51.6906 4.96619 52.0604C4.96619 52.3774 5.07185 52.6943 5.28317 52.9057C5.49449 53.117 5.75864 53.2227 6.12845 53.2227C6.33977 53.2227 6.49826 53.1698 6.65675 53.0642C6.81524 52.9585 6.9209 52.8528 7.02656 52.6943L7.55486 53.1698C7.39637 53.434 7.18505 53.6453 6.9209 53.751C6.65675 53.9094 6.3926 53.9623 6.07562 53.9623Z" fill="#252D35"/>
<path d="M10.091 50.4224H10.7778V53.9092H10.091V52.4827H8.77029V53.9092H8.0835V50.4224H8.77029V51.7959H10.091V50.4224Z" fill="#252D35"/>
<path d="M12.4154 52.9588C12.6267 53.1701 12.8909 53.2758 13.2078 53.2758C13.5248 53.2758 13.789 53.1701 14.0003 52.9588C14.2116 52.7475 14.3173 52.4833 14.3173 52.1135C14.3173 51.7965 14.2116 51.4796 14.0003 51.2682C13.789 51.0569 13.5248 50.9513 13.2078 50.9513C12.8909 50.9513 12.6267 51.0569 12.4154 51.2682C12.2041 51.4796 12.0984 51.7437 12.0984 52.1135C12.0984 52.4833 12.2041 52.7475 12.4154 52.9588ZM14.4758 53.4343C14.106 53.8041 13.6833 53.9626 13.2078 53.9626C12.7324 53.9626 12.2569 53.8041 11.9399 53.4343C11.5701 53.0645 11.4116 52.6418 11.4116 52.1663C11.4116 51.638 11.5701 51.2154 11.9399 50.8984C12.3097 50.5286 12.7324 50.3701 13.2078 50.3701C13.6833 50.3701 14.1588 50.5286 14.4758 50.8984C14.8456 51.2682 15.0041 51.6909 15.0041 52.1663C15.0041 52.6946 14.8456 53.1173 14.4758 53.4343Z" fill="#252D35"/>
<path d="M17.1169 53.2752C17.2226 53.2752 17.3283 53.2224 17.3811 53.1695C17.4339 53.1167 17.4868 53.011 17.4868 52.8526C17.4868 52.7469 17.4339 52.6412 17.3811 52.5356C17.3283 52.4827 17.2226 52.4299 17.1169 52.4299H16.3245V53.2752H17.1169ZM17.0113 51.0563H16.3245V51.8488H17.0113C17.1169 51.8488 17.2226 51.7959 17.2754 51.7431C17.3283 51.6903 17.3811 51.5846 17.3811 51.479C17.3811 51.3733 17.3283 51.2676 17.2754 51.2148C17.2226 51.1092 17.1169 51.0563 17.0113 51.0563ZM17.7509 52.1129C18.0679 52.2714 18.2264 52.5356 18.2264 52.9054C18.2264 53.2224 18.1207 53.4337 17.9094 53.645C17.6981 53.8563 17.4339 53.9092 17.1169 53.9092H15.6377V50.4224H17.0113C17.3283 50.4224 17.5396 50.528 17.7509 50.6865C17.9622 50.845 18.0679 51.1092 18.0679 51.3733C18.0679 51.6903 17.9622 51.9016 17.7509 52.1129Z" fill="#252D35"/>
<path d="M19.653 52.6412H20.6039L20.1285 51.2148L19.653 52.6412ZM21.0266 53.9092L20.8152 53.2752H19.4417L19.2303 53.9092H18.4907L19.7058 50.4224H20.5511L21.7662 53.9092H21.0266Z" fill="#252D35"/>
<path d="M24.2492 50.4224H24.936V53.9092H24.2492V52.4827H22.9285V53.9092H22.2417V50.4224H22.9285V51.7959H24.2492V50.4224Z" fill="#252D35"/>
<path d="M26.5736 52.9588C26.7849 53.1701 27.0491 53.2758 27.3661 53.2758C27.683 53.2758 27.9472 53.1701 28.1585 52.9588C28.3698 52.7475 28.4755 52.4833 28.4755 52.1135C28.4755 51.7965 28.3698 51.4796 28.1585 51.2682C27.9472 51.0569 27.683 50.9513 27.3661 50.9513C27.0491 50.9513 26.7849 51.0569 26.5736 51.2682C26.3623 51.4796 26.2566 51.7437 26.2566 52.1135C26.2038 52.4833 26.3094 52.7475 26.5736 52.9588ZM28.634 53.4343C28.2642 53.8041 27.8415 53.9626 27.3661 53.9626C26.8377 53.9626 26.4151 53.8041 26.0981 53.4343C25.7283 53.0645 25.5698 52.6418 25.5698 52.1663C25.5698 51.638 25.7283 51.2154 26.0981 50.8984C26.4679 50.5286 26.8906 50.3701 27.3661 50.3701C27.8944 50.3701 28.317 50.5286 28.634 50.8984C29.0038 51.2682 29.1623 51.6909 29.1623 52.1663C29.1623 52.6946 29.0038 53.1173 28.634 53.4343Z" fill="#252D35"/>
<path d="M32.6492 53.2752C32.7548 53.2752 32.8605 53.2224 32.9133 53.1695C32.9661 53.1167 33.019 53.011 33.019 52.8526C33.019 52.7469 32.9661 52.6412 32.9133 52.5356C32.8605 52.4827 32.7548 52.4299 32.6492 52.4299H31.8567V53.2752H32.6492ZM32.5435 51.0563H31.8567V51.8488H32.5435C32.6492 51.8488 32.7548 51.7959 32.8077 51.7431C32.8605 51.6903 32.9133 51.5846 32.9133 51.479C32.9133 51.3733 32.8605 51.2676 32.8077 51.2148C32.7548 51.1092 32.6492 51.0563 32.5435 51.0563ZM33.2831 52.1129C33.6001 52.2714 33.7586 52.5356 33.7586 52.9054C33.7586 53.2224 33.6529 53.4337 33.4416 53.645C33.2303 53.8563 32.9661 53.9092 32.6492 53.9092H31.1699V50.4224H32.5435C32.8605 50.4224 33.0718 50.528 33.2831 50.6865C33.4945 50.845 33.6001 51.1092 33.6001 51.3733C33.6001 51.6903 33.4945 51.9016 33.2831 52.1129Z" fill="#252D35"/>
<path d="M35.502 53.9098V53.3815L36.7171 52.1664C36.9813 51.9023 37.1398 51.6381 37.1398 51.4796C37.1398 51.3212 37.087 51.2155 37.0341 51.1627C36.9285 51.057 36.8228 51.057 36.7171 51.057C36.453 51.057 36.2417 51.2155 36.136 51.4796L35.4492 51.057C35.5549 50.7929 35.7134 50.6344 35.9247 50.5287C36.136 50.423 36.3473 50.3174 36.6115 50.3174C36.9285 50.3174 37.1926 50.423 37.4039 50.6344C37.6153 50.8457 37.7209 51.1098 37.7209 51.4268C37.7209 51.7966 37.5096 52.1664 37.1398 52.5363L36.453 53.223H37.7737V53.9098H35.502Z" fill="#252D35"/>
<path d="M39.1475 53.0116C39.2532 53.2229 39.4645 53.3286 39.6758 53.3286C39.8872 53.3286 40.0985 53.2229 40.2041 53.0116C40.3098 52.8003 40.3626 52.5362 40.3626 52.1663C40.3626 51.7965 40.3098 51.5324 40.2041 51.3211C40.0985 51.1097 39.8872 51.0041 39.6758 51.0041C39.4645 51.0041 39.2532 51.1097 39.1475 51.3211C39.0419 51.5324 38.989 51.7965 38.989 52.1663C38.9362 52.5362 38.989 52.8003 39.1475 53.0116ZM39.6758 53.9626C39.2532 53.9626 38.8834 53.8041 38.6721 53.4871C38.4079 53.1701 38.3022 52.6946 38.3022 52.1663C38.3022 51.638 38.4079 51.1626 38.6721 50.8456C38.9362 50.5286 39.2532 50.3701 39.6758 50.3701C40.0985 50.3701 40.4683 50.5286 40.6796 50.8456C40.9438 51.1626 41.0494 51.638 41.0494 52.1663C41.0494 52.6946 40.9438 53.1701 40.6796 53.4871C40.4683 53.8041 40.0985 53.9626 39.6758 53.9626Z" fill="#252D35"/>
<path d="M42.4229 53.0116C42.5286 53.2229 42.7399 53.3286 42.9512 53.3286C43.1625 53.3286 43.3739 53.2229 43.4795 53.0116C43.5852 52.8003 43.638 52.5362 43.638 52.1663C43.638 51.7965 43.5852 51.5324 43.4795 51.3211C43.3739 51.1097 43.1625 51.0041 42.9512 51.0041C42.7399 51.0041 42.5286 51.1097 42.4229 51.3211C42.3173 51.5324 42.2644 51.7965 42.2644 52.1663C42.2116 52.5362 42.2644 52.8003 42.4229 53.0116ZM42.9512 53.9626C42.5286 53.9626 42.1588 53.8041 41.9474 53.4871C41.6833 53.1701 41.5776 52.6946 41.5776 52.1663C41.5776 51.638 41.6833 51.1626 41.9474 50.8456C42.2116 50.5286 42.5286 50.3701 42.9512 50.3701C43.3739 50.3701 43.7437 50.5286 43.955 50.8456C44.2191 51.1626 44.3248 51.638 44.3248 52.1663C44.3248 52.6946 44.2191 53.1701 43.955 53.4871C43.7437 53.8041 43.3739 53.9626 42.9512 53.9626Z" fill="#252D35"/>
<path d="M46.2794 51.8492C46.4908 51.902 46.7021 52.0605 46.8606 52.219C47.0191 52.3775 47.0719 52.5888 47.0719 52.8529C47.0719 53.2228 46.9662 53.4869 46.7021 53.6982C46.4379 53.9095 46.1738 54.0152 45.804 54.0152C45.5398 54.0152 45.2757 53.9624 45.0643 53.8039C44.853 53.6982 44.6945 53.4869 44.5889 53.2756L45.17 52.9586C45.2757 53.2228 45.4342 53.3812 45.804 53.3812C45.9625 53.3812 46.1209 53.3284 46.2266 53.2756C46.3323 53.1699 46.3851 53.0643 46.3851 52.9058C46.3851 52.7473 46.3323 52.6416 46.2266 52.536C46.1209 52.4303 46.0153 52.4303 45.804 52.4303H45.6455L45.3813 52.0077L46.0681 51.1095H44.6945V50.4756H46.9134V51.0567L46.2794 51.8492Z" fill="#252D35"/>
<path d="M1.95472 46.0905H18.6491L8.50566 31.3509V10.5358L33.0717 46.0905H44.7472L33.4943 29.8717L44.6943 25.9622V16.8754L28.4226 22.5283L23.4038 15.2905L44.6943 7.84147V3.19241H1.90189V46.0905H1.95472ZM46.6491 47.9924H0V1.29053H46.6491V47.9924Z" fill="#252D35"/>
</svg>
